<?xml version="1.0" standalone="no"?>
<!DOCTYPE svg PUBLIC "-//W3C//DTD SVG 20010904//EN"
 "http://www.w3.org/TR/2001/REC-SVG-20010904/DTD/svg10.dtd">
<svg version="1.0" xmlns="http://www.w3.org/2000/svg"
 width="512.000000pt" height="512.000000pt" viewBox="0 0 512.000000 512.000000"
 preserveAspectRatio="xMidYMid meet">

<g transform="translate(0.000000,512.000000) scale(0.100000,-0.100000)"
fill="#000000" stroke="none">
<path d="M415 4786 c-94 -41 -124 -168 -58 -247 46 -54 70 -59 307 -59 127 0
226 -4 243 -11 36 -13 78 -54 92 -88 6 -14 99 -528 206 -1141 107 -613 202
-1135 211 -1160 55 -150 181 -263 339 -305 52 -13 208 -15 1210 -14 1054 0
1156 2 1216 17 134 35 244 127 306 258 32 67 41 116 150 768 113 674 116 700
106 771 -20 138 -98 262 -213 339 -132 89 26 81 -1650 84 l-1485 2 -41 234
c-34 191 -47 245 -74 299 -59 120 -179 216 -315 252 -79 20 -504 21 -550 1z
m3919 -1126 c57 -28 79 -63 83 -130 5 -80 -208 -1327 -234 -1372 -10 -18 -37
-43 -59 -55 l-39 -23 -1122 0 c-771 0 -1131 3 -1150 11 -34 13 -70 45 -88 79
-7 14 -70 349 -139 745 -69 396 -128 730 -131 743 l-5 22 1422 0 c1405 0 1422
0 1462 -20z"/>
<path d="M2045 1428 c-88 -16 -207 -81 -277 -151 -112 -112 -163 -235 -163
-397 0 -76 5 -120 19 -160 63 -187 189 -313 376 -376 76 -26 244 -26 320 0
278 94 438 354 391 632 -53 307 -353 511 -666 452z m189 -320 c86 -26 166
-136 166 -228 0 -124 -116 -240 -240 -240 -124 0 -240 116 -240 240 0 63 23
114 75 165 70 71 145 90 239 63z"/>
<path d="M3645 1428 c-88 -16 -207 -81 -277 -151 -112 -112 -163 -235 -163
-397 0 -76 5 -120 19 -160 63 -187 189 -313 376 -376 76 -26 244 -26 320 0
278 94 438 354 391 632 -53 307 -353 511 -666 452z m189 -320 c86 -26 166
-136 166 -228 0 -124 -116 -240 -240 -240 -124 0 -240 116 -240 240 0 63 23
114 75 165 70 71 145 90 239 63z"/>
</g>
</svg>
